HIERARCHY
ROOT Bip001_Pelvis
{
  OFFSET 34.4345 95.6767 -26.8758
  CHANNELS 6 Xposition Yposition Zposition Zrotation Xrotation Yrotation
  JOINT Bip001_Spine
  {
    OFFSET 1.4188e-005 10.2191 -0.0116013
    CHANNELS 3 Zrotation Xrotation Yrotation
    JOINT Bip001_L_Thigh
    {
      OFFSET 11.0458 -10.2192 0.0116197
      CHANNELS 3 Zrotation Xrotation Yrotation
      JOINT Bip001_L_Calf
      {
        OFFSET -0.707118 -44.0221 0.360014
        CHANNELS 3 Zrotation Xrotation Yrotation
        JOINT Bip001_L_Foot
        {
          OFFSET -0.651902 -40.5938 -3.56146
          CHANNELS 3 Zrotation Xrotation Yrotation
          JOINT Bip001_L_Toe0
          {
            OFFSET 0.0530839 -10.2181 13.1504
            CHANNELS 3 Zrotation Xrotation Yrotation
            End Site
            {
              OFFSET -1.02532e-005 0 7.55606
            }
          }
        }
      }
    }
    JOINT Bip001_R_Thigh
    {
      OFFSET -11.0458 -10.2191 0.0115893
      CHANNELS 3 Zrotation Xrotation Yrotation
      JOINT Bip001_R_Calf
      {
        OFFSET 0.706994 -44.0221 0.35984
        CHANNELS 3 Zrotation Xrotation Yrotation
        JOINT Bip001_R_Foot
        {
          OFFSET 0.651786 -40.5938 -3.5613
          CHANNELS 3 Zrotation Xrotation Yrotation
          JOINT Bip001_R_Toe0
          {
            OFFSET -0.0531479 -10.2181 13.1504
            CHANNELS 3 Zrotation Xrotation Yrotation
            End Site
            {
              OFFSET -1.02894e-005 0 7.55606
            }
          }
        }
      }
    }
    JOINT Bip001_Spine1
    {
      OFFSET 1.87041e-005 14.5736 1.08638
      CHANNELS 3 Zrotation Xrotation Yrotation
      JOINT Bip001_Spine2
      {
        OFFSET 2.24614e-005 14.5058 -1.69078
        CHANNELS 3 Zrotation Xrotation Yrotation
        JOINT Bip001_Neck
        {
          OFFSET 2.20278e-005 15.3945 -0.489414
          CHANNELS 3 Zrotation Xrotation Yrotation
          JOINT Bip001_L_Clavicle
          {
            OFFSET 6.06036 -0.000579998 0.00836775
            CHANNELS 3 Zrotation Xrotation Yrotation
            JOINT Bip001_L_UpperArm
            {
              OFFSET 11.5509 -0.0600302 0.00193952
              CHANNELS 3 Zrotation Xrotation Yrotation
              JOINT Bip001_L_Forearm
              {
                OFFSET 25.9523 0.0806089 -2.15551
                CHANNELS 3 Zrotation Xrotation Yrotation
                JOINT Bip001_L_Hand
                {
                  OFFSET 32.2475 0.153767 1.63968
                  CHANNELS 3 Zrotation Xrotation Yrotation
                  JOINT Bip001_L_Finger0
                  {
                    OFFSET 6.04639 -2.20976 5.90322
                    CHANNELS 3 Zrotation Xrotation Yrotation
                    End Site
                    {
                      OFFSET 4.22375 -1.43895 0.606485
                    }
                  }
                  JOINT Bip001_L_Finger1
                  {
                    OFFSET 11.0826 -0.704819 -0.198153
                    CHANNELS 3 Zrotation Xrotation Yrotation
                    End Site
                    {
                      OFFSET 6.20027 -0.397518 -0.0787166
                    }
                  }
                }
              }
            }
          }
          JOINT Bip001_R_Clavicle
          {
            OFFSET -6.06037 -0.000563197 0.00835105
            CHANNELS 3 Zrotation Xrotation Yrotation
            JOINT Bip001_R_UpperArm
            {
              OFFSET -11.5509 -0.0599978 0.00190698
              CHANNELS 3 Zrotation Xrotation Yrotation
              JOINT Bip001_R_Forearm
              {
                OFFSET -25.9523 0.0806822 -2.15589
                CHANNELS 3 Zrotation Xrotation Yrotation
                JOINT Bip001_R_Hand
                {
                  OFFSET -32.2475 0.153859 1.63989
                  CHANNELS 3 Zrotation Xrotation Yrotation
                  JOINT Bip001_R_Finger0
                  {
                    OFFSET -6.04641 -2.20976 5.90317
                    CHANNELS 3 Zrotation Xrotation Yrotation
                    End Site
                    {
                      OFFSET -4.22376 -1.43895 0.60647
                    }
                  }
                  JOINT Bip001_R_Finger1
                  {
                    OFFSET -11.0826 -0.704794 -0.198182
                    CHANNELS 3 Zrotation Xrotation Yrotation
                    End Site
                    {
                      OFFSET -6.20028 -0.397504 -0.0787333
                    }
                  }
                }
              }
            }
          }
          JOINT Bip001_Head
          {
            OFFSET 1.09673e-005 11.2744 2.05948
            CHANNELS 3 Zrotation Xrotation Yrotation
            End Site
            {
              OFFSET 2.89576e-005 20.8808 -2.77728e-005
            }
          }
        }
      }
    }
  }
}
MOTION
Frames:	14
Frame Time:	0.04
33.3787 96.0009 -28.2246 0.0615779 0.224887 3.38306 -0.208775 1.88451 -0.27326 5.42725 -3.58723 7.37208 -0.629581 7.57864 -8.7543 1.54667 -4.8205 0.00371745 0.444222 -3.23626 -0.108264 -2.90549 -2.64291 -3.5765 -0.416884 9.67567 0.399236 -5.47028 -8.88546 2.16644 2.22791 -7.54723 2.29985 -0.410638 3.76997 -0.540494 -0.409809 3.76997 -0.54022 2.68807 -7.61417 -3.67022 -25.9315 7.54295 2.30656 -56.1405 39.4302 4.56604 16.8509 -0.500383 -24.1851 8.37832 1.79005 -3.87421 -3.18055e-015 -3.18055e-015 -0 -3.18055e-015 -6.36111e-015 3.18055e-015 6.38858 14.3027 34.8991 47.9542 -37.675 39.2368 -40.8748 -8.89708 71.2772 -34.3 6.06108 4.54993 -1.59028e-015 -1.59028e-015 7.95139e-015 -2.42765e-031 1.59028e-015 8.74652e-015 -2.03536 -5.83356 -2.58989 
33.3851 96.0636 -28.2554 0.546274 0.211151 2.74285 -0.313596 1.85086 -0.177855 4.84716 -2.71071 5.71772 -0.579292 6.02488 -6.39943 0.790562 -4.3648 0.00483951 0.311367 -2.9167 -0.0309689 -3.3272 -2.87433 -2.65066 -0.292318 10.0306 0.406829 -5.47647 -8.92771 1.84701 2.18721 -7.41376 2.24831 -0.625743 3.70268 -0.343257 -0.623203 3.70269 -0.344366 2.72636 -7.51554 -3.65357 -25.9228 7.41885 2.387 -56.4255 40.0372 4.46975 16.8898 0.0643259 -23.6472 8.34231 1.36525 -4.24143 -6.36111e-015 -3.18055e-015 -1.59028e-015 -3.18055e-015 -3.18056e-015 -1.59028e-015 7.0066 14.3739 34.4549 42.1018 -36.5448 34.9952 -38.4391 -9.61233 69.4952 -35.0651 4.70103 5.49913 -1.59028e-015 -4.77083e-015 -0 -3.18055e-015 -4.77083e-015 -1.59028e-015 -2.09433 -5.77148 -2.55325 
33.3806 96.0796 -28.3401 0.497379 0.283399 2.5235 -0.300299 1.83153 -0.131742 4.78424 -2.77985 5.51413 -0.423611 5.98708 -5.98237 0.697712 -4.31426 0.00534463 0.347681 -2.90833 -0.052961 -3.35541 -2.95981 -2.28823 -0.15265 9.90733 0.422948 -5.48144 -8.80288 1.73368 2.15547 -7.30429 2.20072 -0.593715 3.66375 -0.254388 -0.595877 3.66375 -0.254204 2.73171 -7.58079 -3.69223 -25.9434 7.47212 2.40732 -56.739 40.0357 4.48069 17.0372 0.486002 -23.6068 8.20214 1.39288 -4.34121 0 0 -3.18055e-015 0 0 -4.77083e-015 8.22023 14.764 33.6821 38.4613 -36.0169 31.5273 -38.3861 -8.70501 70.3862 -35.2927 4.45108 5.84932 3.18055e-015 1.59028e-015 -7.95139e-016 3.18055e-015 0 -1.98785e-015 -2.18443 -5.85113 -2.57005 
33.3862 96.0796 -28.3606 0.617518 0.152018 2.17365 -0.310968 1.87815 -0.0820084 4.66871 -2.52343 5.3553 -0.469032 5.73487 -5.59178 0.770763 -4.15332 0.00547758 0.370289 -2.97248 -0.0524565 -3.5278 -3.01491 -1.9658 -0.0252225 10.0567 0.375596 -5.47191 -8.8926 1.74431 2.13165 -7.23661 2.18556 -0.620081 3.75671 -0.153071 -0.619299 3.75672 -0.153499 2.49029 -8.05189 -3.62745 -25.9388 7.87562 2.78236 -56.6966 39.9836 4.47506 17.0699 0.53671 -23.9814 8.26803 1.50784 -4.15484 3.18055e-015 0 9.54166e-015 3.18055e-015 -6.36111e-015 7.95139e-015 10.4673 15.824 32.7055 36.8828 -37.7692 27.7304 -36.7952 -6.19343 75.8965 -35.8496 2.51474 6.00668 4.41391e-032 3.18055e-015 -7.95139e-016 0 4.77083e-015 -0 -2.04022 -5.67831 -2.59179 
33.3536 96.0746 -28.4168 0.599102 0.10783 2.07267 -0.32849 1.88249 -0.0810066 4.72479 -2.54095 5.73487 -0.455886 5.81741 -5.93162 0.947681 -4.09642 0.00277217 0.399851 -3.09627 -0.077484 -3.48757 -3.06394 -1.735 0.0286719 10.1223 0.267547 -5.43878 -8.88955 1.73954 2.1216 -7.17937 2.15185 -0.654665 3.76541 -0.15415 -0.654687 3.76542 -0.154128 2.48249 -8.25202 -3.56998 -25.9151 8.03067 2.99316 -56.8171 40.088 4.53251 17.0544 0.292063 -23.9734 8.28466 1.34938 -4.22447 3.18055e-015 3.18055e-015 -1.59028e-015 3.18055e-015 3.18056e-015 -1.59028e-015 12.6842 16.589 31.5652 37.1776 -40.6274 23.3004 -37.0001 -2.34585 83.4503 -37.0115 1.183 5.27713 3.18055e-015 1.59028e-015 7.95139e-016 8.82782e-032 -3.18056e-015 1.59028e-015 -1.93671 -5.50634 -2.55688 
33.4023 96.0675 -28.3602 0.798462 -0.116237 2.1117 -0.380722 1.90784 -0.0948803 4.47316 -2.06164 5.56881 -0.381583 5.29707 -5.9125 1.14099 -3.76941 -0.0045574 0.44755 -3.25537 -0.0996244 -3.70169 -2.87247 -2.20015 0.0113404 10.2796 0.389928 -5.39244 -9.11629 2.03678 2.13295 -7.22381 2.16287 -0.760849 3.81624 -0.175962 -0.759507 3.81625 -0.176847 2.41873 -8.14763 -3.52189 -25.9358 7.95474 2.93065 -56.7859 40.2211 4.5969 17.0047 -0.0136295 -23.8401 8.27007 1.38872 -4.1058 -3.18055e-015 -3.18055e-015 -3.18055e-015 -2.64834e-031 -3.18056e-015 -4.77083e-015 14.8001 16.8947 30.2423 35.5935 -40.9984 16.533 -36.8852 -0.539473 89.1461 -38.5902 1.11319 5.14281 -6.36111e-015 0 -7.95139e-016 -3.18055e-015 -1.59028e-015 -0 -1.90265 -5.44665 -2.52916 
33.3885 96.0478 -28.4151 0.752714 -0.0375838 2.29297 -0.37816 1.89215 -0.135951 4.56655 -2.3316 5.74579 -0.419724 5.59645 -6.1959 1.2304 -3.85149 -0.00651346 0.504223 -3.32702 -0.160721 -3.63843 -2.94132 -2.33941 -0.0263678 10.2935 0.377619 -5.45231 -9.16449 2.04588 2.15503 -7.30715 2.20647 -0.752125 3.78516 -0.25976 -0.752847 3.78516 -0.259682 2.11136 -8.16309 -3.41952 -25.748 8.01983 2.90544 -56.6036 40.3626 4.40694 16.9516 -0.139402 -23.5827 8.29921 1.3512 -4.06029 3.18055e-015 -9.54166e-015 -0 3.18055e-015 -1.59028e-014 1.59028e-015 16.9789 17.1698 28.7518 32.7702 -38.0489 7.66297 -37.2491 -0.820401 92.7011 -39.3213 1.22638 5.46916 -3.18055e-015 -1.59028e-015 3.18055e-015 -3.18055e-015 -1.59028e-015 2.38542e-015 -1.68615 -5.38258 -2.53959 
33.3157 96.0369 -28.4256 0.664793 -0.0157231 2.44839 -0.362246 1.8796 -0.149017 4.76579 -2.48713 5.89356 -0.532396 5.84361 -6.49702 1.24882 -3.98416 -0.00778212 0.455121 -3.27671 -0.118979 -3.46994 -2.88787 -2.37198 -0.105625 10.2033 0.35087 -5.48244 -9.13493 1.99509 2.16696 -7.34863 2.22371 -0.72428 3.7601 -0.287509 -0.724464 3.76011 -0.287334 1.94857 -8.19203 -3.37949 -25.6976 8.05407 2.94681 -56.6666 40.2982 4.70147 16.9293 -0.458144 -23.9109 8.46146 1.54209 -3.76089 -3.18055e-015 -6.36111e-015 4.77083e-015 1.76556e-031 -3.18056e-015 3.18055e-015 18.7534 17.2964 27.1527 31.3459 -33.5204 -1.02757 -38.4432 -0.626861 94.5539 -38.1514 1.52295 5.68251 6.36111e-015 1.59028e-015 -0 6.36111e-015 3.18056e-015 1.59028e-015 -1.50932 -5.30369 -2.55253 
33.2873 96.0024 -28.4047 0.626449 -0.0844548 2.61631 -0.354784 1.9273 -0.136741 4.82195 -2.649 6.49791 -0.493351 6.18326 -7.34732 1.66512 -3.96449 -0.00867292 0.604235 -3.55413 -0.219938 -3.40049 -2.81697 -2.72359 -0.197565 10.2236 0.325921 -5.48017 -9.2725 2.18756 2.19474 -7.4359 2.25538 -0.704737 3.85541 -0.261489 -0.705116 3.8554 -0.261644 1.75553 -8.38393 -3.37605 -25.629 8.2619 2.96891 -56.5546 40.3377 4.57241 16.7449 -1.18051 -24.0422 8.44279 1.61222 -3.59962 3.18055e-015 -9.54166e-015 3.18055e-015 6.36111e-015 -9.54167e-015 6.36111e-015 20.2672 17.4638 25.5956 31.9982 -27.6129 -8.08972 -39.0706 0.200559 93.4941 -35.8044 2.07475 5.27764 -6.36111e-015 1.59028e-015 7.95139e-016 -6.36111e-015 0 2.38542e-015 -1.39454 -5.37964 -2.62706 
33.3011 95.9692 -28.4295 0.66982 -0.043647 2.63962 -0.355781 1.95951 -0.106946 4.80831 -2.87781 6.81935 -0.508831 6.48282 -7.73985 1.78772 -4.07824 -0.00950032 0.612656 -3.59108 -0.216359 -3.47494 -2.99205 -2.75713 -0.155174 10.446 0.314091 -5.56993 -9.43283 2.16121 2.2257 -7.51551 2.26272 -0.707925 3.91962 -0.201419 -0.708192 3.91964 -0.20167 1.42431 -9.00652 -3.48464 -25.4609 8.82658 3.25938 -56.513 40.3541 4.44194 16.8834 -1.32142 -24.1533 8.27398 1.60279 -3.51753 0 0 -0 -3.18055e-015 0 -3.18055e-015 21.4319 18.0607 24.496 34.6749 -21.8642 -13.1263 -39.6158 2.37136 88.8977 -32.2653 2.3613 5.4235 -3.18055e-015 9.93923e-016 3.18055e-015 6.62086e-032 -1.59028e-015 2.38542e-015 -1.23115 -4.80759 -2.83238 
33.2501 95.9679 -28.4412 0.494996 -0.161506 2.57793 -0.317119 2.00124 -0.0811747 5.10867 -2.89713 6.90671 -0.735577 6.70397 -7.79735 1.93586 -4.17602 -0.0105746 0.645995 -3.6205 -0.265075 -3.24033 -2.83129 -2.45113 -0.194164 10.2026 0.373814 -5.67411 -9.25699 1.8466 2.24333 -7.58796 2.30517 -0.631978 4.00289 -0.151403 -0.631978 4.00289 -0.151403 0.980721 -9.24903 -3.33332 -25.2233 9.13828 3.24778 -56.4561 40.3894 4.54955 16.9425 -1.22812 -24.3133 8.39116 1.51722 -3.68077 6.36111e-015 0 -0 6.36111e-015 0 3.18055e-015 22.6978 18.1415 23.1841 39.114 -14.2247 -15.6901 -43.5032 4.60751 80.3205 -30.3844 2.71861 5.54526 -1.13796e-032 -1.63997e-015 -3.97569e-016 0 4.47266e-016 -0 -0.824956 -4.52581 -2.85641 
33.3434 95.9662 -28.4138 0.629336 0.00782622 2.83761 -0.341096 1.96952 -0.134618 4.87316 -2.92182 6.46351 -0.709538 6.4087 -7.64426 2.16899 -3.91331 -0.0224971 0.690291 -3.78532 -0.274967 -3.45443 -2.86894 -3.01046 -0.202647 10.184 0.585632 -5.65159 -9.37731 1.97996 2.2866 -7.71315 2.3363 -0.678531 3.9398 -0.254541 -0.678204 3.93981 -0.256468 0.764209 -9.27921 -3.24497 -25.0063 9.21128 3.20926 -56.6364 40.5814 4.69569 16.9519 -1.18719 -24.1954 8.4475 1.4818 -3.62832 3.18055e-015 3.18055e-015 -6.36111e-015 0 0 -3.18055e-015 23.3131 18.0049 22.3023 44.8314 -2.7495 -17.0325 -45.095 5.76617 67.3169 -30.5047 2.93788 4.93855 7.95139e-016 3.8763e-015 7.95139e-016 -4.27597e-032 3.08116e-015 7.95139e-016 -0.714853 -4.47706 -2.84197 
33.3722 95.9488 -28.3933 0.557382 -0.0116322 3.00723 -0.326675 1.9676 -0.166726 4.93796 -3.01825 6.58884 -0.733653 6.62451 -7.99781 2.42076 -3.91791 -0.020792 0.718037 -3.90047 -0.290367 -3.39683 -2.77292 -3.31201 -0.264627 10.1315 0.802212 -5.67787 -9.37517 1.97694 2.31699 -7.79647 2.35432 -0.647297 3.93611 -0.32944 -0.64795 3.93613 -0.325622 0.698876 -9.31796 -3.15686 -24.9296 9.29753 3.11668 -56.9088 40.6697 4.86773 16.9645 -0.911531 -23.9933 8.48404 1.52503 -3.70195 -3.18055e-015 3.18055e-015 -4.77083e-015 -6.36111e-015 3.18056e-015 -4.77083e-015 23.5088 17.8308 21.552 50.2438 6.92496 -17.4734 -43.5633 7.68052 54.2377 -28.9318 3.29788 4.04185 -1.76556e-031 -6.36111e-015 -1.59028e-015 -3.18055e-015 -4.37326e-015 -1.59028e-015 -0.73508 -4.4635 -2.75892 
33.4796 95.9481 -28.5101 0.892229 0.373744 2.83495 -0.386173 1.90766 -0.154051 4.52355 -3.15287 6.14524 -0.755328 6.14067 -7.40725 2.47015 -3.57162 -0.0351216 0.75367 -3.97279 -0.313472 -3.8126 -3.43988 -2.84821 -0.103758 10.6565 0.647777 -5.77351 -9.55674 1.72742 2.31958 -7.80744 2.36023 -0.767859 3.81629 -0.295729 -0.767861 3.81631 -0.295727 0.664356 -9.50154 -3.05659 -24.8801 9.51491 3.08488 -57.1876 40.8944 4.84242 16.9198 -0.601236 -23.6391 8.59661 1.69984 -3.69292 3.18055e-015 -3.18055e-015 -0 -8.82782e-032 -3.18056e-015 -1.59028e-015 23.5812 17.8946 21.1982 54.0796 14.1203 -16.543 -38.541 9.38121 42.1764 -26.8472 3.29235 2.61459 3.18055e-015 -1.59028e-015 -1.59028e-015 6.36111e-015 0 -1.59028e-015 -0.730174 -4.43302 -2.67818 
